<svg width="400" height="75" viewBox="0 0 417 75" fill="none" xmlns="http://www.w3.org/2000/svg">
<path d="M60.7991 0.706965H0V11.3822H24.0369V50.1946H36.7623V11.3822H60.7991V0.706965Z" fill="#fe724e"/>
<path d="M61.9286 25.3801C61.9286 41.8524 71.2606 50.9016 93.0351 50.9016C112.76 50.9016 122.657 43.3371 123.93 28.9856H110.992C109.79 37.0451 103.569 40.2264 93.0351 40.2264C80.1684 40.2264 74.654 35.5604 74.654 25.3801C74.654 15.2705 80.0977 10.6752 93.0351 10.6752C103.64 10.6752 109.79 13.7858 110.992 21.7746H123.93C122.657 7.49385 112.76 0 93.0351 0C71.2606 0 61.9286 8.97848 61.9286 25.3801Z" fill="#fe724e"/>
<path fill-rule="evenodd" clip-rule="evenodd" d="M121.173 75H5.81567V66.0158H121.173V75Z" fill="#fe724e"/>
<path d="M182.34 19.9V26.75H173.04V55H164.49V26.75H155.19V19.9H182.34ZM184.931 41C184.931 38.1333 185.465 35.6167 186.531 33.45C187.631 31.2833 189.115 29.6167 190.981 28.45C192.848 27.2833 194.931 26.7 197.231 26.7C199.198 26.7 200.915 27.1 202.381 27.9C203.881 28.7 205.031 29.75 205.831 31.05V27.1H214.381V55H205.831V51.05C204.998 52.35 203.831 53.4 202.331 54.2C200.865 55 199.148 55.4 197.181 55.4C194.915 55.4 192.848 54.8167 190.981 53.65C189.115 52.45 187.631 50.7667 186.531 48.6C185.465 46.4 184.931 43.8667 184.931 41ZM205.831 41.05C205.831 38.9167 205.231 37.2333 204.031 36C202.865 34.7667 201.431 34.15 199.731 34.15C198.031 34.15 196.581 34.7667 195.381 36C194.215 37.2 193.631 38.8667 193.631 41C193.631 43.1333 194.215 44.8333 195.381 46.1C196.581 47.3333 198.031 47.95 199.731 47.95C201.431 47.95 202.865 47.3333 204.031 46.1C205.231 44.8667 205.831 43.1833 205.831 41.05ZM231.917 55.4C229.483 55.4 227.317 54.9833 225.417 54.15C223.517 53.3167 222.017 52.1833 220.917 50.75C219.817 49.2833 219.2 47.65 219.067 45.85H227.517C227.617 46.8167 228.067 47.6 228.867 48.2C229.667 48.8 230.65 49.1 231.817 49.1C232.883 49.1 233.7 48.9 234.267 48.5C234.867 48.0667 235.167 47.5167 235.167 46.85C235.167 46.05 234.75 45.4667 233.917 45.1C233.083 44.7 231.733 44.2667 229.867 43.8C227.867 43.3333 226.2 42.85 224.867 42.35C223.533 41.8167 222.383 41 221.417 39.9C220.45 38.7667 219.967 37.25 219.967 35.35C219.967 33.75 220.4 32.3 221.267 31C222.167 29.6667 223.467 28.6167 225.167 27.85C226.9 27.0833 228.95 26.7 231.317 26.7C234.817 26.7 237.567 27.5667 239.567 29.3C241.6 31.0333 242.767 33.3333 243.067 36.2H235.167C235.033 35.2333 234.6 34.4667 233.867 33.9C233.167 33.3333 232.233 33.05 231.067 33.05C230.067 33.05 229.3 33.25 228.767 33.65C228.233 34.0167 227.967 34.5333 227.967 35.2C227.967 36 228.383 36.6 229.217 37C230.083 37.4 231.417 37.8 233.217 38.2C235.283 38.7333 236.967 39.2667 238.267 39.8C239.567 40.3 240.7 41.1333 241.667 42.3C242.667 43.4333 243.183 44.9667 243.217 46.9C243.217 48.5333 242.75 50 241.817 51.3C240.917 52.5667 239.6 53.5667 237.867 54.3C236.167 55.0333 234.183 55.4 231.917 55.4ZM263.998 47.75V55H259.648C256.548 55 254.131 54.25 252.398 52.75C250.664 51.2167 249.798 48.7333 249.798 45.3V34.2H246.398V27.1H249.798V20.3H258.348V27.1H263.948V34.2H258.348V45.4C258.348 46.2333 258.548 46.8333 258.948 47.2C259.348 47.5667 260.014 47.75 260.948 47.75H263.998ZM295.06 40.6C295.06 41.4 295.01 42.2333 294.91 43.1H275.56C275.693 44.8333 276.243 46.1667 277.21 47.1C278.21 48 279.427 48.45 280.86 48.45C282.993 48.45 284.477 47.55 285.31 45.75H294.41C293.943 47.5833 293.093 49.2333 291.86 50.7C290.66 52.1667 289.143 53.3167 287.31 54.15C285.477 54.9833 283.427 55.4 281.16 55.4C278.427 55.4 275.993 54.8167 273.86 53.65C271.727 52.4833 270.06 50.8167 268.86 48.65C267.66 46.4833 267.06 43.95 267.06 41.05C267.06 38.15 267.643 35.6167 268.81 33.45C270.01 31.2833 271.677 29.6167 273.81 28.45C275.943 27.2833 278.393 26.7 281.16 26.7C283.86 26.7 286.26 27.2667 288.36 28.4C290.46 29.5333 292.093 31.15 293.26 33.25C294.46 35.35 295.06 37.8 295.06 40.6ZM286.31 38.35C286.31 36.8833 285.81 35.7167 284.81 34.85C283.81 33.9833 282.56 33.55 281.06 33.55C279.627 33.55 278.41 33.9667 277.41 34.8C276.443 35.6333 275.843 36.8167 275.61 38.35H286.31ZM298.121 37.4C298.121 33.9333 298.871 30.85 300.371 28.15C301.871 25.4167 303.954 23.3 306.621 21.8C309.321 20.2667 312.371 19.5 315.771 19.5C319.937 19.5 323.504 20.6 326.471 22.8C329.437 25 331.421 28 332.421 31.8H323.021C322.321 30.3333 321.321 29.2167 320.021 28.45C318.754 27.6833 317.304 27.3 315.671 27.3C313.037 27.3 310.904 28.2167 309.271 30.05C307.637 31.8833 306.821 34.3333 306.821 37.4C306.821 40.4667 307.637 42.9167 309.271 44.75C310.904 46.5833 313.037 47.5 315.671 47.5C317.304 47.5 318.754 47.1167 320.021 46.35C321.321 45.5833 322.321 44.4667 323.021 43H332.421C331.421 46.8 329.437 49.8 326.471 52C323.504 54.1667 319.937 55.25 315.771 55.25C312.371 55.25 309.321 54.5 306.621 53C303.954 51.4667 301.871 49.35 300.371 46.65C298.871 43.95 298.121 40.8667 298.121 37.4ZM346.207 18V55H337.657V18H346.207ZM350.703 41C350.703 38.1333 351.236 35.6167 352.303 33.45C353.403 31.2833 354.886 29.6167 356.753 28.45C358.619 27.2833 360.703 26.7 363.003 26.7C364.969 26.7 366.686 27.1 368.153 27.9C369.653 28.7 370.803 29.75 371.603 31.05V27.1H380.153V55H371.603V51.05C370.769 52.35 369.603 53.4 368.103 54.2C366.636 55 364.919 55.4 362.953 55.4C360.686 55.4 358.619 54.8167 356.753 53.65C354.886 52.45 353.403 50.7667 352.303 48.6C351.236 46.4 350.703 43.8667 350.703 41ZM371.603 41.05C371.603 38.9167 371.003 37.2333 369.803 36C368.636 34.7667 367.203 34.15 365.503 34.15C363.803 34.15 362.353 34.7667 361.153 36C359.986 37.2 359.403 38.8667 359.403 41C359.403 43.1333 359.986 44.8333 361.153 46.1C362.353 47.3333 363.803 47.95 365.503 47.95C367.203 47.95 368.636 47.3333 369.803 46.1C371.003 44.8667 371.603 43.1833 371.603 41.05ZM403.338 26.8C406.605 26.8 409.205 27.8667 411.138 30C413.105 32.1 414.088 35 414.088 38.7V55H405.588V39.85C405.588 37.9833 405.105 36.5333 404.138 35.5C403.172 34.4667 401.872 33.95 400.238 33.95C398.605 33.95 397.305 34.4667 396.338 35.5C395.372 36.5333 394.888 37.9833 394.888 39.85V55H386.338V27.1H394.888V30.8C395.755 29.5667 396.922 28.6 398.388 27.9C399.855 27.1667 401.505 26.8 403.338 26.8Z" fill="#282B30"/>
</svg>
