<svg width="76" height="76" viewBox="0 0 76 76" fill="none" xmlns="http://www.w3.org/2000/svg">
<path d="M64.5137 0.5H11.4863C5.42897 0.5 0.5 5.42897 0.5 11.4863V64.5137C0.5 70.571 5.42897 75.5 11.4863 75.5H64.5137C70.571 75.5 75.5 70.571 75.5 64.5137V11.4863C75.5 5.42897 70.571 0.5 64.5137 0.5ZM38.1465 57.6289C27.242 57.6289 18.3711 48.758 18.3711 37.8535C18.3711 26.949 27.242 18.0781 38.1465 18.0781C49.051 18.0781 57.9219 26.949 57.9219 37.8535C57.9219 48.758 49.051 57.6289 38.1465 57.6289ZM60.1191 22.4727C56.4845 22.4727 53.5273 19.5155 53.5273 15.8809C53.5273 12.2462 56.4845 9.28906 60.1191 9.28906C63.7538 9.28906 66.7109 12.2462 66.7109 15.8809C66.7109 19.5155 63.7538 22.4727 60.1191 22.4727Z" fill="palevioletred"/>
<path d="M60.1191 13.6836C58.9066 13.6836 57.9219 14.6684 57.9219 15.8809C57.9219 17.0934 58.9066 18.0781 60.1191 18.0781C61.3316 18.0781 62.3164 17.0934 62.3164 15.8809C62.3164 14.6684 61.3316 13.6836 60.1191 13.6836Z" fill="palevioletred"/>
<path d="M38.1465 22.4727C29.6664 22.4727 22.7656 29.3734 22.7656 37.8535C22.7656 46.3336 29.6664 53.2344 38.1465 53.2344C46.6266 53.2344 53.5273 46.3336 53.5273 37.8535C53.5273 29.3734 46.6266 22.4727 38.1465 22.4727Z" fill="palevioletred"/>
</svg>
