<svg id="Capa_1" enable-background="new 0 0 505.595 505.595" height="512" viewBox="0 0 505.595 505.595" width="512" xmlns="http://www.w3.org/2000/svg"><g><path d="m46.2 316.41h34v118.731h-34z" fill="#eab74d" transform="matrix(.707 .707 -.707 .707 284.224 65.373)"/><path d="m48.69 310.399h17v118.731h-17z" fill="#d09d3f" transform="matrix(.707 .707 -.707 .707 278.214 67.863)"/><path d="m430.153 123.25-17.93 17.93-21.21-21.21 33.27-33.27c-1.64-5.22-3.65-10.31-6-15.22l-37.88 37.88-21.21-21.21 42.22-42.22c-1.55-1.78-3.18-3.52-4.87-5.21-1.87-1.87-3.8-3.66-5.77-5.36l-42.19 42.18-21.21-21.21 37.69-37.69c-4.94-2.33-10.06-4.3-15.3-5.92l-33 33-21.21-21.21 17.42-17.41c-7.51-.09-15.13.43-22.78 1.55l-5.25 5.25-3.67-3.67c-5.61 1.15-11.21 2.63-16.78 4.44l9.85 9.84-21.22 21.21-18.26-18.26c-4.47 2.45-8.88 5.11-13.21 8l20.87 20.87-21.22 21.22-23.34-23.34c-1.62 1.5-3.22 3.05-4.8 4.63-1.98 1.98-3.9 3.99-5.76 6.03l23.29 23.29-21.21 21.21-20.63-20.63c-2.85 4.37-5.49 8.82-7.89 13.33l17.91 17.91-21.21 21.21-9.24-9.24c-1.75 5.63-3.17 11.3-4.26 16.96l2.89 2.89-4.08 4.08c-1.13 7.64-1.65 15.26-1.55 22.77l16.24-16.25 21.21 21.22-31.83 31.83c1.61 5.24 3.58 10.35 5.92 15.29l36.52-36.52 21.21 21.22-41.02 41.02c1.7 1.97 3.49 3.9 5.36 5.77 1.69 1.69 3.43 3.32 5.21 4.87l41.06-41.06 21.21 21.22-36.71 36.71c4.91 2.36 9.99 4.36 15.21 6l32.11-32.11 21.21 21.22-16.76 16.76c7.44.14 14.99-.31 22.57-1.36l4.8-4.8 3.43 3.43c5.66-1.09 11.31-2.51 16.94-4.26l-9.77-9.77 21.22-21.22 18.45 18.45c4.5-2.41 8.95-5.04 13.31-7.89l-21.16-21.16 21.22-21.22 23.82 23.83c2.04-1.86 4.04-3.78 6.02-5.76 1.58-1.58 3.13-3.18 4.63-4.8l-23.87-23.87 21.22-21.22 21.4 21.4c2.89-4.33 5.55-8.74 8-13.21v-.01l-18.79-18.79 21.21-21.21 10.38 10.37c1.8-5.57 3.28-11.17 4.43-16.78l-4.2-4.2 5.96-5.96c1.05-7.59 1.5-15.14 1.36-22.58zm-60.35-3.28-21.22 21.21-21.21-21.21 21.21-21.21zm-95.47 31.83-21.21 21.21-21.22-21.21 21.22-21.22zm-10.61-31.82 21.22-21.22 21.22 21.21-21.22 21.22zm21.22 42.42 21.21 21.22-21.21 21.21-21.22-21.21zm10.6-10.6 21.22-21.22 21.22 21.21-21.22 21.22zm42.44-63.65-21.22 21.21-21.21-21.21 21.21-21.21zm-53.04-53.031 21.22 21.21-21.22 21.21-21.21-21.21zm-31.82 31.821 21.22 21.21-21.22 21.22-21.22-21.21zm-31.82 31.82 21.21 21.22-21.21 21.21-21.22-21.21zm-53.04 53.04 21.22-21.22 21.21 21.22-21.21 21.21zm31.82 31.819 21.22-21.22 21.21 21.22-21.21 21.21zm31.82 31.821 21.22-21.22 21.21 21.22-21.21 21.21zm53.04 53.03-21.22-21.21 21.22-21.22 21.21 21.22zm31.82-31.82-21.22-21.21 21.22-21.22 21.21 21.22zm31.82-31.821-21.22-21.21 21.22-21.22 21.22 21.21zm31.82-31.829-21.21-21.21 21.21-21.21 21.22 21.21z" fill="#bdc0c9"/><path d="m401.004 35.732c-54.004-54.001-150-45.869-213.996 18.126-19.419 19.419-34.119 42.122-43.238 66.305-15.202 32.277-19.719 65.68-24.081 97.991-5.382 39.854-10.029 74.273-33.539 97.783-2.929 2.929-2.929 7.678 0 10.606 1.465 1.464 3.385 2.197 5.304 2.197s3.839-.732 5.304-2.197c27.09-27.09 32.291-65.605 37.797-106.382.558-4.13 1.118-8.278 1.704-12.438 5.093 23.064 16.155 43.662 32.624 60.13 16.426 16.426 36.961 27.465 59.953 32.576-4.122.58-8.233 1.135-12.326 1.688-40.776 5.506-79.291 10.707-106.382 37.797-2.929 2.929-2.929 7.678 0 10.606 1.465 1.464 3.385 2.197 5.304 2.197s3.839-.732 5.304-2.197c23.509-23.509 57.928-28.157 97.782-33.539 32.008-4.322 65.086-8.796 97.081-23.657 24.547-9.089 47.601-23.917 67.281-43.597 63.994-63.996 72.124-159.994 18.124-213.995zm-88.384 242.689c-.611.118-1.218.306-1.805.585-.343.163-.688.319-1.031.479-12.472 4.56-25.342 7.497-38.323 8.654-36.164 3.218-68.826-7.749-91.971-30.893-23.146-23.145-34.116-55.807-30.894-91.971 1.188-13.329 4.253-26.541 9.024-39.324.015-.031.029-.063.044-.095.198-.415.347-.84.464-1.268 8.393-21.875 21.814-42.45 39.487-60.123 32.655-32.654 74.235-49.532 112.955-49.532 30.228 0 58.717 10.295 79.827 31.406 48.152 48.153 40.021 134.634-18.126 192.782-17.546 17.546-37.952 30.895-59.651 39.3z" fill="#d09d3f"/><path d="m120.803 339.98-11.54-11.54-12.5-12.5c-1.41-1.41-3.32-2.2-5.31-2.2s-3.9.79-5.3 2.2l-83.96 83.95c-1.4 1.41-2.19 3.32-2.19 5.31s.79 3.89 2.19 5.3l12.5 12.5 11.54 11.54c1.47 1.47 3.39 2.2 5.31 2.2s3.84-.73 5.3-2.2l83.96-83.95c2.92-2.93 2.92-7.68 0-10.61z" fill="#3e4a56"/><path d="m120.803 339.98-11.54-11.54c-1.41-1.41-3.32-2.2-5.31-2.2s-3.9.79-5.3 2.2l-83.96 83.95c-1.4 1.41-2.19 3.32-2.19 5.31s.79 3.89 2.19 5.3l11.54 11.54c1.47 1.47 3.39 2.2 5.31 2.2s3.84-.73 5.3-2.2l83.96-83.95c2.92-2.93 2.92-7.68 0-10.61z" fill="#526071"/><path d="m499.008 192.105-17.93 17.93-21.21-21.21 33.27-33.27c-1.64-5.22-3.65-10.31-6-15.22l-37.88 37.88-21.21-21.21 42.22-42.22c-1.55-1.78-3.18-3.52-4.87-5.21-1.87-1.87-3.8-3.66-5.77-5.36l-42.19 42.18-21.21-21.21 37.69-37.69c-4.94-2.33-10.06-4.3-15.3-5.92l-33 33-21.21-21.21 17.42-17.41c-7.51-.09-15.13.43-22.78 1.55l-5.25 5.25-3.67-3.67c-5.61 1.15-11.21 2.63-16.78 4.44l9.85 9.84-21.22 21.21-18.26-18.26c-4.47 2.45-8.88 5.11-13.21 8l20.87 20.87-21.22 21.22-23.34-23.34c-1.62 1.5-3.22 3.05-4.8 4.63-1.98 1.98-3.9 3.99-5.76 6.03l23.29 23.29-21.21 21.21-20.63-20.63c-2.85 4.37-5.49 8.82-7.89 13.33l17.91 17.91-21.21 21.21-9.24-9.24c-1.75 5.63-3.17 11.3-4.26 16.96l2.89 2.89-4.08 4.08c-1.13 7.64-1.65 15.26-1.55 22.77l16.24-16.25 21.21 21.22-31.83 31.83c1.61 5.24 3.58 10.35 5.92 15.29l36.52-36.52 21.21 21.22-41.02 41.02c1.7 1.97 3.49 3.9 5.36 5.77 1.69 1.69 3.43 3.32 5.21 4.87l41.06-41.06 21.21 21.22-36.71 36.71c4.91 2.36 9.99 4.36 15.21 6l32.11-32.11 21.21 21.22-16.76 16.76c7.44.14 14.99-.31 22.57-1.36l4.8-4.8 3.43 3.43c5.66-1.09 11.31-2.51 16.94-4.26l-9.77-9.77 21.22-21.22 18.45 18.45c4.5-2.41 8.95-5.04 13.31-7.89l-21.16-21.16 21.22-21.22 23.82 23.83c2.04-1.86 4.04-3.78 6.02-5.76 1.58-1.58 3.13-3.18 4.63-4.8l-23.87-23.87 21.22-21.22 21.4 21.4c2.89-4.33 5.55-8.74 8-13.21v-.01l-18.79-18.79 21.21-21.21 10.38 10.37c1.8-5.57 3.28-11.17 4.43-16.78l-4.2-4.2 5.96-5.96c1.05-7.59 1.5-15.14 1.36-22.58zm-60.35-3.28-21.22 21.21-21.21-21.21 21.21-21.21zm-95.47 31.83-21.21 21.21-21.22-21.21 21.22-21.22zm-10.61-31.82 21.22-21.22 21.22 21.21-21.22 21.22zm21.22 42.419 21.21 21.22-21.21 21.21-21.22-21.21zm10.6-10.599 21.22-21.22 21.22 21.21-21.22 21.22zm42.44-63.651-21.22 21.21-21.21-21.21 21.21-21.21zm-53.04-53.03 21.22 21.21-21.22 21.21-21.21-21.21zm-31.82 31.821 21.22 21.21-21.22 21.22-21.22-21.21zm-31.82 31.82 21.21 21.22-21.21 21.21-21.22-21.21zm-53.04 53.04 21.22-21.22 21.21 21.22-21.21 21.21zm31.82 31.819 21.22-21.22 21.21 21.22-21.21 21.21zm31.82 31.821 21.22-21.22 21.21 21.22-21.21 21.21zm53.04 53.03-21.22-21.21 21.22-21.22 21.21 21.22zm31.82-31.821-21.22-21.21 21.22-21.22 21.21 21.22zm31.82-31.82-21.22-21.21 21.22-21.22 21.22 21.21zm31.82-31.829-21.21-21.21 21.21-21.21 21.22 21.21z" fill="#d6d8e0"/><path d="m457.498 428.305c0 3.02-.26 5.99-.75 8.87-3.28 19.27-17.05 34.95-35.24 40.97-2.46.82-5.02 1.46-7.64 1.9-2.88.49-5.84.75-8.87.75-2.08 0-4.13-.12-6.14-.36-24.08-2.8-43.19-21.91-45.99-45.99-.24-2.01-.36-4.06-.36-6.14 0-3.03.26-6 .75-8.88 3.73-21.89 20.99-39.15 42.87-42.87 2.88-.49 5.85-.75 8.87-.75 2.08 0 4.13.12 6.15.36 3.58.41 7.04 1.19 10.36 2.29 19.03 6.3 33.24 23.19 35.63 43.69.24 2.019.36 4.069.36 6.16z" fill="#f5dc60"/><path d="m418.358 479.164c-1.35.35-2.73.65-4.13.88-2.88.49-5.84.75-8.87.75-2.08 0-4.13-.12-6.14-.36-24.08-2.8-43.19-21.91-45.99-45.99-.24-2.01-.36-4.06-.36-6.14 0-3.03.26-6 .75-8.88 3.73-21.89 20.99-39.15 42.87-42.87 2.88-.49 5.85-.75 8.87-.75 2.08 0 4.13.12 6.15.36 2.33.27 4.61.69 6.84 1.26-19.89 5.08-35.24 21.51-38.73 42-.49 2.88-.75 5.85-.75 8.88 0 2.08.12 4.13.36 6.14 2.53 21.74 18.35 39.43 39.13 44.72z" fill="#ddc448"/><g fill="#e7e8ed"><path d="m411.148 376.164c-.44 15.39-6.67 29.86-17.55 40.74-10.88 10.87-25.34 17.1-40.73 17.54-.24-2.01-.36-4.06-.36-6.14 0-3.03.26-6 .75-8.88 11.24-.52 21.76-5.16 29.73-13.13s12.61-18.5 13.14-29.74c2.88-.49 5.85-.75 8.87-.75 2.08.001 4.13.121 6.15.36z"/><path d="m457.498 428.305c0 3.02-.26 5.99-.75 8.87-11.24.51-21.77 5.16-29.74 13.14-7.98 7.97-12.62 18.5-13.14 29.73-2.88.49-5.84.75-8.87.75-2.08 0-4.13-.12-6.14-.36.42-15.38 6.66-29.85 17.54-40.73 10.9-10.9 25.36-17.12 40.74-17.56.24 2.019.36 4.069.36 6.16z"/></g><path d="m469.859 104.587c-54.004-54.001-150-45.869-213.996 18.126-19.419 19.419-34.119 42.122-43.238 66.305-15.202 32.277-19.719 65.68-24.081 97.991-5.382 39.854-10.029 74.273-33.539 97.783-2.929 2.929-2.929 7.678 0 10.606 1.465 1.464 3.385 2.197 5.304 2.197s3.839-.732 5.304-2.197c27.09-27.09 32.291-65.605 37.797-106.382.558-4.13 1.118-8.278 1.704-12.438 5.093 23.064 16.155 43.662 32.624 60.13 16.426 16.426 36.961 27.465 59.953 32.576-4.122.58-8.233 1.135-12.326 1.688-40.776 5.506-79.291 10.707-106.382 37.797-2.929 2.929-2.929 7.678 0 10.606 1.465 1.464 3.385 2.197 5.304 2.197s3.839-.732 5.304-2.197c23.509-23.509 57.928-28.157 97.782-33.539 32.008-4.322 65.086-8.796 97.081-23.657 24.547-9.089 47.601-23.917 67.281-43.597 63.994-63.996 72.124-159.994 18.124-213.995zm-88.384 242.689c-.611.118-1.218.306-1.805.585-.343.163-.688.319-1.031.479-12.472 4.56-25.342 7.497-38.323 8.654-36.164 3.218-68.826-7.749-91.971-30.893-23.146-23.145-34.116-55.807-30.894-91.971 1.188-13.329 4.253-26.541 9.024-39.324.015-.031.029-.063.044-.095.198-.415.347-.84.464-1.268 8.393-21.875 21.814-42.45 39.487-60.123 32.654-32.654 74.234-49.532 112.954-49.532 30.228 0 58.717 10.295 79.827 31.406 48.152 48.153 40.021 134.634-18.126 192.782-17.545 17.546-37.951 30.895-59.65 39.3z" fill="#eab74d"/><path d="m189.658 408.835-11.54-11.54-12.5-12.5c-1.41-1.41-3.32-2.2-5.31-2.2s-3.9.79-5.3 2.2l-83.96 83.95c-1.4 1.41-2.19 3.32-2.19 5.31s.79 3.89 2.19 5.3l12.5 12.5 11.54 11.54c1.47 1.47 3.39 2.2 5.31 2.2s3.84-.73 5.3-2.2l83.96-83.95c2.92-2.931 2.92-7.681 0-10.61z" fill="#3e4a56"/><path d="m189.658 408.835-11.54-11.54c-1.41-1.41-3.32-2.2-5.31-2.2s-3.9.79-5.3 2.2l-83.96 83.95c-1.4 1.41-2.19 3.32-2.19 5.31s.79 3.89 2.19 5.3l11.54 11.54c1.47 1.47 3.39 2.2 5.31 2.2s3.84-.73 5.3-2.2l83.96-83.95c2.92-2.931 2.92-7.681 0-10.61z" fill="#526071"/></g></svg>